<svg width="30" height="30" viewBox="0 0 30 30" fill="none" xmlns="http://www.w3.org/2000/svg">
<g id="export-svgrepo-com 1">
<path id="Vector" d="M15 6.24994L14.1161 5.36605L15 4.48218L15.8839 5.36605L15 6.24994ZM16.25 17.4999C16.25 18.1903 15.6904 18.7499 15 18.7499C14.3096 18.7499 13.75 18.1903 13.75 17.4999H16.25ZM7.86612 11.6161L14.1161 5.36605L15.8839 7.13383L9.63389 13.3838L7.86612 11.6161ZM15.8839 5.36605L22.1339 11.6161L20.3661 13.3838L14.1161 7.13383L15.8839 5.36605ZM16.25 6.24994V17.4999H13.75V6.24994H16.25Z" fill="white"/>
<path id="Vector_2" d="M6.25 20V21.25C6.25 22.6307 7.36929 23.75 8.75 23.75H21.25C22.6307 23.75 23.75 22.6307 23.75 21.25V20" stroke="white" stroke-width="3"/>
</g>
</svg>
